<?xml version="1.0" standalone="no"?>
<!DOCTYPE svg PUBLIC "-//W3C//DTD SVG 20010904//EN"
 "http://www.w3.org/TR/2001/REC-SVG-20010904/DTD/svg10.dtd">
<svg version="1.0" xmlns="http://www.w3.org/2000/svg"
 width="1024.000000pt" height="1024.000000pt" viewBox="0 0 1024.000000 1024.000000"
 preserveAspectRatio="xMidYMid meet">

<g transform="translate(0.000000,1024.000000) scale(0.100000,-0.100000)"
fill="#000000" stroke="none">
<path d="M6090 8186 c0 -3 9 -10 20 -16 11 -6 20 -8 20 -6 0 3 -9 10 -20 16
-11 6 -20 8 -20 6z"/>
<path d="M6250 8096 c0 -3 12 -12 28 -20 26 -15 24 -15 -48 -16 -116 -1 -318
-28 -390 -52 -51 -17 -77 -33 -122 -78 -105 -106 -96 -19 -90 -839 l5 -718
-329 -7 c-181 -4 -330 -11 -332 -16 -2 -5 -9 -7 -17 -4 -7 3 -16 -3 -20 -15
-3 -12 -11 -21 -16 -21 -5 0 -9 -6 -9 -14 0 -9 -20 -16 -65 -21 -42 -4 -68
-12 -73 -22 -7 -12 -16 -13 -44 -5 -31 8 -39 7 -58 -12 -16 -15 -24 -17 -27
-8 -7 17 -23 15 -23 -3 0 -18 -20 -20 -21 -2 0 6 -5 3 -10 -8 -11 -22 -76 -55
-108 -55 -31 0 -242 179 -286 244 l-40 58 -3 169 -3 170 63 -7 c35 -4 65 -8
67 -10 2 -1 7 -74 11 -161 4 -87 12 -168 18 -179 6 -11 28 -32 49 -46 32 -22
53 -27 128 -31 50 -3 74 -2 55 1 l-35 7 -6 542 c-3 298 -8 545 -11 549 -4 3
-10 -10 -13 -30 -8 -38 -35 -51 -35 -16 0 11 -4 20 -10 20 -5 0 -10 9 -10 20
0 16 -7 20 -34 20 -18 0 -39 -7 -46 -15 -14 -16 -40 -20 -40 -6 0 5 -13 14
-28 20 -16 7 -34 24 -40 39 -11 26 -11 26 -6 2 16 -71 16 -179 0 -228 -33 -99
-124 -193 -202 -208 l-31 -6 -5 -116 c-3 -65 -2 -209 3 -322 11 -276 36 -350
158 -462 73 -68 135 -99 215 -107 33 -4 273 -2 531 2 567 11 967 -1 1085 -31
102 -27 176 -61 267 -124 119 -82 174 -144 232 -261 93 -188 93 -187 96 -840
1 -312 1 -566 -1 -564 -5 5 -24 168 -33 277 -8 106 -14 127 -42 135 -13 4 -19
16 -19 36 0 20 -4 28 -11 23 -8 -5 -10 -44 -6 -133 2 -69 6 -130 7 -136 1 -5
1 -46 0 -90 l-3 -80 -7 65 c-4 36 -8 173 -9 305 -4 632 -29 827 -125 970 -86
127 -233 225 -421 277 -79 22 -85 22 -865 23 l-785 1 -60 31 c-170 87 -274
208 -331 383 -15 47 -18 104 -22 393 -3 271 -6 337 -17 337 -7 0 -22 3 -32 6
-10 3 -5 -2 10 -11 l29 -16 -5 -150 c-2 -82 -7 -152 -11 -156 -3 -3 -6 1 -6
10 0 9 -6 17 -13 17 -6 0 -18 15 -26 33 -8 17 -18 34 -22 37 -4 3 -9 19 -11
35 -2 24 -10 32 -38 42 -19 7 -36 17 -38 22 -2 6 -15 -1 -28 -14 -14 -14 -29
-25 -34 -25 -6 0 -10 -4 -10 -9 0 -6 -16 -27 -35 -48 -19 -21 -35 -47 -35 -57
0 -19 1 -19 13 -2 11 15 21 17 63 10 27 -4 52 -7 56 -6 19 5 27 -49 33 -218
12 -360 24 -416 120 -574 66 -110 99 -142 202 -193 73 -36 73 -36 255 -45 101
-4 419 -6 708 -2 627 7 821 -2 929 -40 90 -32 190 -94 237 -150 19 -23 51 -72
70 -111 59 -121 64 -163 64 -616 l0 -405 35 -34 c35 -34 65 -103 65 -149 0
-49 -45 -127 -95 -165 -27 -20 -55 -36 -64 -36 -10 0 -39 11 -67 25 -57 29
-89 73 -106 145 -9 41 -8 56 6 94 22 57 52 95 84 107 l25 10 -7 390 c-7 378
-8 392 -33 467 -45 139 -115 223 -239 283 l-69 34 -875 5 c-856 5 -876 5 -925
26 -77 31 -211 121 -251 167 -19 23 -30 32 -24 20 17 -36 -13 -29 -44 10 -14
17 -33 39 -41 48 -8 9 -15 19 -15 23 0 4 -12 23 -27 42 -16 18 -27 36 -26 39
4 7 -47 55 -58 55 -6 0 -7 5 -4 10 3 6 1 10 -6 10 -7 0 -9 3 -6 7 9 8 -24 32
-45 33 -21 0 -24 -16 -5 -23 6 -2 2 -2 -10 0 -13 2 -23 -1 -23 -7 0 -17 -57
-130 -62 -124 -10 9 -20 -782 -16 -1274 2 -259 1 -471 -2 -470 -20 10 -167
179 -217 248 -109 153 -236 391 -290 545 -44 127 -110 408 -124 525 -11 100
-14 111 -22 83 -12 -40 -25 -42 -29 -5 -2 19 -8 26 -21 24 -9 -2 -33 2 -53 7
-36 10 -64 6 -64 -10 0 -5 -9 -18 -20 -29 -18 -18 -20 -18 -21 -2 -3 65 -19
79 -19 16 0 -262 121 -676 296 -1013 130 -251 233 -388 481 -641 l93 -96 7
-81 6 -81 41 -19 c23 -10 64 -39 93 -65 91 -82 90 -82 79 30 -11 112 -15 1827
-4 1838 4 4 27 -11 51 -32 24 -21 52 -44 63 -50 19 -11 19 -31 17 -967 -2
-922 -1 -956 16 -962 11 -3 47 -24 80 -45 34 -22 66 -40 71 -40 6 0 10 130 10
347 0 279 2 344 13 331 6 -9 29 -20 49 -23 34 -6 39 -5 47 16 11 32 19 -96 27
-468 l6 -293 61 -30 c33 -16 66 -30 73 -30 19 0 26 119 22 395 -1 138 -1 356
0 485 2 129 1 411 -4 625 -4 215 -4 438 0 497 l8 107 26 -19 c15 -10 41 -20
57 -22 17 -2 33 -7 37 -12 3 -6 4 -479 1 -1053 l-6 -1043 57 -25 c66 -29 141
-34 150 -9 3 9 6 25 6 37 0 43 14 51 63 39 77 -20 446 -62 539 -62 89 0 383
32 462 50 61 14 63 14 75 -35 13 -50 14 -51 100 -69 76 -16 131 1 131 40 0 17
8 27 24 34 15 5 27 20 31 39 4 18 13 31 22 31 12 0 14 6 9 28 -4 15 -9 41 -12
57 -3 17 -9 39 -14 50 -18 43 -20 58 -9 71 9 11 8 15 -4 20 -11 4 -15 16 -12
42 16 188 16 313 0 395 -10 53 -15 105 -11 134 9 74 10 158 1 276 -8 112 -21
140 -28 60 -2 -27 -3 128 -3 344 1 409 3 425 43 408 10 -4 30 -7 46 -6 16 2
28 -3 29 -11 1 -7 3 -441 3 -965 0 -523 4 -955 8 -959 5 -5 23 0 40 10 18 11
54 32 82 47 l50 28 -2 318 c-1 214 2 290 7 233 4 -47 8 -140 9 -207 1 -114 10
-184 33 -242 6 -17 4 -30 -7 -47 -22 -34 -5 -30 33 7 23 23 32 27 32 15 0 -31
45 -12 140 61 l55 43 -1 302 -2 303 7 -292 c3 -160 9 -294 12 -298 10 -10 51
11 99 49 25 20 80 63 122 96 85 67 92 76 102 137 5 32 18 54 62 100 281 291
421 485 574 798 149 305 231 607 261 967 15 172 2 435 -31 633 -65 396 -258
843 -474 1099 -28 33 -78 95 -110 136 -32 41 -109 125 -171 185 -127 125 -125
120 -125 288 l0 98 -232 -2 c-203 -2 -237 0 -265 14 -18 10 -33 15 -33 13z
m117 -377 c152 -73 230 -237 189 -397 -19 -75 -68 -155 -126 -204 -70 -60
-104 -73 -200 -73 -77 0 -92 3 -153 33 -52 26 -79 48 -113 90 -170 216 -65
527 196 582 67 13 138 3 207 -31z m523 -401 c124 -140 238 -310 320 -481 148
-307 212 -577 227 -962 17 -459 -105 -911 -360 -1330 -93 -153 -264 -362 -282
-344 -2 3 -4 460 -4 1015 1 555 0 1278 -1 1607 -1 328 0 597 3 597 4 0 47 -46
97 -102z m-940 -533 c33 -17 70 -72 70 -104 0 -25 -14 -56 -39 -86 -15 -17
-17 -37 -12 -143 3 -67 4 -122 1 -122 -3 0 -32 8 -65 18 l-60 19 3 89 c2 49 7
90 12 92 5 2 -9 26 -30 54 -43 54 -49 82 -25 128 33 63 88 84 145 55z m651
-23 c43 -39 51 -103 17 -152 -51 -75 -124 -75 -193 1 -32 36 -36 46 -32 76 7
41 21 59 62 85 46 28 108 24 146 -10z m-396 -3 c22 -2 45 0 51 4 8 4 13 -33
17 -115 8 -133 9 -438 3 -438 -2 0 -27 16 -56 35 -29 19 -58 35 -66 35 -12 0
-14 43 -14 251 0 200 3 249 13 241 6 -6 30 -11 52 -13z m307 -264 c21 -5 29
-2 40 17 11 20 14 -4 19 -177 3 -110 3 -232 1 -270 l-5 -71 -56 59 -56 59 -3
116 c-5 160 6 308 21 288 7 -8 24 -18 39 -21z m-2618 -1170 c6 -6 29 -18 51
-26 l40 -15 8 -69 c4 -39 5 -211 1 -382 l-6 -313 40 -36 c74 -66 94 -175 48
-264 -26 -52 -116 -130 -150 -130 -67 0 -159 82 -186 166 -26 77 25 219 82
231 l28 6 0 356 c0 393 7 535 23 504 6 -10 15 -23 21 -28z m1734 -887 c3 -789
1 -916 -11 -927 -47 -38 -339 -81 -559 -81 -150 0 -512 60 -542 90 -12 12 -19
1263 -9 1625 l5 210 557 -1 556 -2 3 -914z m229 -460 c-1 -40 -3 -10 -3 67 0
77 1 110 3 73 2 -37 2 -100 0 -140z m400 -115 c-2 -16 -4 -5 -4 22 0 28 2 40
4 28 2 -13 2 -35 0 -50z m-400 -200 c-2 -21 -4 -6 -4 32 0 39 2 55 4 38 2 -18
2 -50 0 -70z m400 -115 c-2 -24 -4 -5 -4 42 0 47 2 66 4 43 2 -24 2 -62 0 -85z
m-400 -225 c-2 -16 -4 -3 -4 27 0 30 2 43 4 28 2 -16 2 -40 0 -55z m10 -95
c-2 -13 -4 -3 -4 22 0 25 2 35 4 23 2 -13 2 -33 0 -45z"/>
<path d="M6165 7578 c-54 -19 -83 -47 -99 -95 -31 -90 -11 -170 57 -230 75
-66 172 -49 234 41 43 62 49 89 34 145 -16 61 -55 109 -105 132 -46 21 -77 23
-121 7z"/>
<path d="M3880 4360 c-23 -23 -28 -88 -8 -108 20 -20 65 -14 82 10 19 27 21
89 4 106 -18 18 -56 14 -78 -8z"/>
<path d="M4973 5065 c-64 -32 -133 -107 -169 -182 -23 -50 -26 -66 -22 -132 8
-117 38 -174 161 -299 56 -57 121 -117 143 -133 23 -15 56 -50 73 -76 65 -98
66 -171 1 -235 -32 -33 -44 -38 -82 -38 -30 0 -54 7 -71 20 -32 25 -67 97 -67
137 0 32 32 87 83 141 l32 34 -30 24 c-16 14 -46 38 -66 54 l-36 29 -45 -47
c-78 -81 -93 -119 -93 -247 0 -88 4 -117 19 -145 38 -71 86 -119 151 -151 58
-28 72 -31 125 -26 163 14 293 161 294 331 0 104 -34 173 -132 268 -123 117
-252 259 -279 306 -28 48 -28 103 1 147 20 31 86 65 124 65 61 0 112 -69 112
-150 0 -46 -9 -68 -53 -122 l-30 -37 31 -38 c16 -21 42 -49 57 -63 l27 -25 40
45 c23 25 53 70 67 100 22 47 26 69 25 145 0 113 -25 177 -93 236 -64 57 -112
79 -184 85 -54 5 -69 2 -114 -21z"/>
<path d="M4415 7854 c11 -8 28 -21 38 -29 9 -8 17 -11 17 -7 0 10 -55 52 -67
52 -4 0 1 -7 12 -16z"/>
<path d="M4483 7748 c1 -38 5 -68 10 -68 14 0 11 95 -4 120 -6 10 -8 -9 -6
-52z"/>
<path d="M3845 7543 c-11 -3 -32 -16 -47 -31 -97 -91 -24 -277 108 -277 73 0
104 53 82 140 -8 33 -19 46 -60 72 -41 25 -54 29 -68 20 -14 -8 -22 -8 -33 1
-8 7 -22 10 -31 6 -21 -8 -20 -2 3 25 27 31 118 36 178 10 54 -23 59 -23 42
-3 -31 38 -105 53 -174 37z"/>
<path d="M4030 7479 c0 -4 7 -20 15 -35 8 -16 15 -22 15 -13 0 14 -29 61 -30
48z"/>
<path d="M3710 7111 c14 -11 30 -21 35 -21 11 0 -7 14 -40 31 -13 7 -12 3 5
-10z"/>
<path d="M4848 6363 c12 -2 30 -2 40 0 9 3 -1 5 -23 4 -22 0 -30 -2 -17 -4z"/>
<path d="M3532 6255 c0 -16 2 -22 5 -12 2 9 2 23 0 30 -3 6 -5 -1 -5 -18z"/>
<path d="M3540 6209 c-1 -58 98 -284 149 -338 20 -22 18 -17 -8 29 -47 81 -90
176 -117 255 -13 39 -23 63 -24 54z"/>
<path d="M6172 4294 c-41 -28 -18 -104 31 -104 29 0 52 49 48 103 -1 22 -48
23 -79 1z"/>
<path d="M5040 2566 c-70 -16 -112 -38 -158 -84 -64 -64 -77 -102 -77 -222 0
-84 4 -112 19 -140 38 -70 76 -107 143 -141 63 -31 75 -33 163 -33 89 0 100 2
165 35 l70 35 3 142 3 142 -93 0 c-51 0 -110 3 -130 6 l-38 7 0 -67 0 -66 60
0 60 0 0 -45 c0 -40 -3 -45 -27 -52 -58 -15 -127 -8 -172 17 -64 35 -86 78
-86 165 0 86 17 114 88 150 77 38 139 33 193 -17 22 -19 22 -19 73 26 29 25
57 46 64 46 18 0 -58 49 -116 75 -67 30 -138 37 -207 21z"/>
<path d="M7160 2393 c0 -104 2 -248 6 -320 l7 -133 67 0 67 0 6 68 c9 86 9
230 0 420 l-6 152 -73 0 -72 0 -2 -187z"/>
<path d="M7611 2571 l-74 -6 67 -100 c37 -55 85 -121 107 -147 21 -26 39 -49
39 -52 0 -5 -100 -151 -145 -211 -13 -16 -32 -49 -44 -72 l-21 -43 72 0 73 0
75 111 c62 93 76 108 85 94 5 -9 34 -49 64 -88 29 -40 58 -82 64 -94 9 -21 17
-23 94 -23 45 0 83 3 83 8 0 11 -43 74 -115 167 -72 95 -95 130 -95 147 0 7
45 80 100 162 55 82 99 150 98 150 -2 1 -40 0 -85 -2 l-82 -3 -61 -92 c-34
-51 -65 -93 -69 -94 -9 -4 -131 167 -131 183 0 8 -6 13 -12 12 -7 -1 -46 -4
-87 -7z"/>
<path d="M2074 2258 c2 -172 5 -314 5 -315 1 -2 33 -3 71 -3 l70 0 0 126 0
127 68 -6 c37 -4 95 -7 130 -7 l62 0 0 -120 0 -120 75 0 75 0 0 315 0 315 -75
0 -75 0 0 -125 0 -125 -130 0 -130 0 0 125 0 125 -75 0 -76 0 5 -312z"/>
<path d="M2910 2255 l0 -315 70 0 69 0 3 315 3 315 -72 0 -73 0 0 -315z"/>
<path d="M3335 2256 l0 -316 73 0 72 0 0 94 0 93 48 6 c58 7 66 0 135 -110
l52 -84 82 3 c94 3 94 -8 0 123 l-64 90 26 16 c75 45 118 133 105 215 -9 61
-40 103 -104 142 l-54 32 -142 0 c-78 0 -161 3 -185 6 l-44 6 0 -316z m358
143 c30 -33 34 -57 12 -98 -19 -38 -30 -41 -142 -41 l-96 0 7 38 c3 20 6 58 6
84 l0 47 73 3 c95 5 107 2 140 -33z"/>
<path d="M4120 2255 l0 -315 235 0 235 0 0 69 0 68 -99 7 c-54 4 -129 4 -165
0 l-66 -7 0 63 0 63 61 -7 c33 -4 96 -4 140 0 l79 7 0 58 0 59 -140 0 -140 0
0 58 0 57 160 -4 160 -3 0 71 0 71 -230 0 -230 0 0 -315z"/>
<path d="M5620 2275 c0 -159 3 -299 6 -310 5 -19 13 -20 240 -20 l234 0 0 66
0 67 -126 7 c-69 4 -145 5 -170 2 l-44 -5 0 60 c0 58 1 60 23 54 12 -3 77 -3
145 1 l123 6 -3 60 -3 59 -142 -1 -143 -2 0 56 0 55 164 0 164 0 4 71 3 70
-237 -3 -238 -3 0 -290z"/>
<path d="M6340 2252 c0 -282 2 -314 16 -308 9 3 41 6 72 6 l57 0 -3 175 c-2
96 0 175 3 175 9 0 47 -46 111 -136 31 -44 82 -109 113 -146 l56 -68 68 0 67
0 -1 310 -1 310 -69 0 -69 0 0 -185 c0 -102 -4 -185 -9 -185 -5 0 -11 8 -14
18 -5 19 -127 183 -210 282 l-54 64 -66 1 -67 0 0 -313z"/>
</g>
</svg>
