<?xml version="1.0" standalone="no"?>
<!DOCTYPE svg PUBLIC "-//W3C//DTD SVG 20010904//EN"
 "http://www.w3.org/TR/2001/REC-SVG-20010904/DTD/svg10.dtd">
<svg version="1.0" xmlns="http://www.w3.org/2000/svg"
 width="1280.000000pt" height="1280.000000pt" viewBox="0 0 1280.000000 1280.000000"
 preserveAspectRatio="xMidYMid meet">

<g transform="translate(0.000000,1280.000000) scale(0.100000,-0.100000)"
fill="#000000" stroke="none">
<path d="M0 6400 l0 -6400 6400 0 6400 0 0 6400 0 6400 -6400 0 -6400 0 0
-6400z m6605 4550 c259 -17 428 -48 653 -121 281 -92 587 -254 852 -453 114
-85 379 -347 471 -466 286 -367 475 -808 560 -1305 30 -175 37 -524 14 -705
-29 -233 -87 -490 -146 -656 -78 -215 -271 -549 -436 -754 -95 -119 -280 -307
-398 -407 -170 -143 -481 -340 -652 -412 -110 -47 -334 -129 -382 -140 l-43
-9 4 523 c2 288 6 526 9 529 3 3 23 8 45 12 l41 6 6 -68 c4 -38 9 -215 12
-394 6 -372 12 -473 27 -464 5 4 8 19 6 35 -5 29 -3 31 226 143 360 178 568
326 812 579 377 390 602 842 699 1402 18 106 22 579 5 715 -62 507 -287 1001
-647 1420 -190 222 -467 425 -813 596 -158 78 -287 126 -454 169 -240 61 -324
70 -681 70 -289 0 -332 -3 -448 -23 -410 -74 -856 -278 -1183 -542 -108 -87
-284 -265 -376 -380 -228 -284 -405 -634 -497 -981 -60 -227 -65 -273 -66
-639 0 -383 5 -426 80 -684 108 -373 220 -603 438 -896 272 -365 680 -672
1135 -851 70 -28 131 -55 136 -60 6 -5 14 -9 18 -9 4 0 8 194 8 430 l0 430 44
0 c37 0 45 -4 50 -22 9 -36 7 -1001 -3 -1016 -24 -38 -531 183 -781 340 -306
192 -505 375 -731 671 -231 302 -411 683 -488 1032 -48 220 -55 304 -55 650 0
318 1 335 27 465 61 307 127 502 270 788 l91 184 -17 30 c-23 41 -22 130 4
214 20 66 26 74 144 192 86 85 131 122 147 122 26 0 142 52 152 69 4 6 26 15
49 22 23 6 56 22 74 35 17 13 38 21 46 18 15 -5 53 16 232 130 109 70 409 220
537 270 205 79 489 147 688 165 138 12 303 12 485 1z m89 -295 c602 -70 1077
-308 1508 -753 309 -320 490 -667 606 -1156 l35 -151 4 -313 c5 -342 -2 -448
-43 -632 -65 -289 -230 -665 -382 -865 -72 -95 -174 -205 -190 -205 -23 0 -52
30 -52 54 0 26 26 69 87 143 120 148 289 441 367 639 89 225 114 387 122 799
l6 300 -31 135 c-80 343 -192 630 -326 837 -319 491 -864 872 -1413 987 -176
37 -286 46 -564 46 -472 0 -694 -45 -1023 -205 -375 -183 -730 -487 -950 -815
-73 -110 -204 -376 -250 -509 -91 -265 -119 -433 -119 -706 0 -475 107 -888
320 -1237 82 -136 239 -345 329 -439 113 -117 120 -130 101 -166 -26 -51 -41
-58 -75 -34 -50 36 -147 149 -177 206 -18 35 -37 56 -51 60 -52 13 -211 248
-320 470 -93 192 -157 402 -204 676 -27 156 -38 570 -20 728 13 105 72 354
116 489 33 98 229 495 291 587 275 410 736 758 1217 918 325 109 742 152 1081
112z m-572 -252 c45 -41 12 -63 -152 -98 -331 -72 -615 -205 -865 -406 -110
-88 -326 -306 -406 -409 -90 -117 -117 -163 -198 -330 -159 -330 -221 -627
-208 -1000 6 -176 18 -259 66 -447 43 -172 84 -279 167 -446 143 -289 273
-447 562 -685 94 -77 195 -143 302 -197 115 -57 130 -70 130 -107 0 -39 -21
-45 -86 -24 -62 20 -279 148 -391 232 -162 122 -378 361 -516 569 -180 274
-316 716 -333 1080 -17 398 51 713 236 1090 141 289 277 467 530 693 192 172
521 358 755 427 110 32 306 72 364 74 14 1 33 -6 43 -16z m888 -27 c786 -202
1380 -811 1581 -1621 26 -105 31 -149 39 -345 17 -391 -7 -633 -87 -868 -104
-311 -241 -543 -449 -761 -135 -143 -308 -295 -421 -371 -122 -82 -305 -175
-327 -167 -8 3 -18 18 -22 32 -8 32 -7 33 164 133 139 80 269 178 434 329 179
162 259 272 395 542 166 331 247 722 223 1074 -24 354 -76 559 -212 831 -98
196 -213 357 -375 526 -179 187 -341 305 -578 422 -168 82 -331 136 -520 173
-77 15 -143 32 -147 39 -10 15 -10 61 0 70 14 16 170 -4 302 -38z m-534 -91
c55 -17 109 -61 148 -119 42 -63 34 -181 -17 -257 -32 -48 -100 -96 -146 -104
-87 -15 -206 57 -251 151 -24 48 -24 101 1 187 20 74 120 156 190 157 14 0 48
-7 75 -15z m-688 -336 c64 -32 97 -86 97 -163 0 -83 -27 -134 -85 -163 -69
-36 -158 -25 -213 25 -52 47 -74 160 -43 220 15 29 59 73 91 90 33 18 105 14
153 -9z m1409 10 c42 -16 73 -48 99 -104 38 -81 26 -155 -36 -217 -34 -35 -42
-38 -91 -38 -118 1 -209 86 -209 196 0 43 33 114 66 144 29 25 43 30 89 30 29
0 66 -5 82 -11z m-724 -424 l-6 -164 65 -73 c84 -95 98 -117 98 -151 0 -47
-30 -97 -106 -177 -63 -65 -71 -78 -61 -95 19 -34 29 -981 24 -2292 -3 -1026
-6 -1245 -17 -1258 -13 -16 -101 -65 -116 -65 -10 0 5 2861 16 3250 6 176 14
338 19 359 10 48 5 59 -75 143 -62 64 -64 67 -64 120 1 72 27 125 94 189 l56
53 0 144 c0 80 5 152 10 163 7 12 21 19 40 19 l29 0 -6 -165z m711 -228 c7
-231 0 -299 -36 -350 -12 -18 -67 -81 -122 -142 l-99 -110 79 -3 c135 -6 133
-7 369 232 116 117 247 247 291 289 l81 77 -5 68 c-4 62 -2 70 22 99 64 77
133 76 205 -2 35 -38 41 -51 41 -87 0 -52 -31 -122 -58 -137 -25 -13 -92 -14
-125 -2 -23 9 -42 -8 -266 -234 -133 -134 -241 -248 -241 -253 0 -12 49 -22
107 -22 54 0 121 42 160 101 l26 39 121 0 122 0 49 50 c43 44 54 50 90 50 54
0 87 -18 107 -60 22 -43 23 -92 3 -130 -28 -54 -80 -64 -157 -30 -27 11 -87
23 -153 30 l-108 10 -94 -91 c-127 -123 -130 -124 -319 -109 -189 16 -387 10
-429 -13 -16 -8 -73 -54 -125 -101 -129 -117 -191 -144 -175 -77 12 50 73 126
256 321 101 108 198 213 215 235 65 83 66 88 72 339 l5 231 42 -3 42 -4 7
-211z m-2158 197 c104 -49 112 -161 18 -244 -42 -37 -83 -39 -139 -7 -49 28
-69 66 -69 133 -1 56 14 81 69 115 37 23 76 24 121 3z m742 -219 l2 -231 152
-159 c278 -294 400 -448 414 -522 4 -19 4 -36 1 -39 -12 -13 -74 33 -193 143
l-126 116 -191 -6 c-106 -4 -238 -10 -294 -13 l-102 -7 -108 106 -108 105
-124 11 c-68 6 -127 14 -132 16 -4 3 -14 -2 -21 -11 -43 -53 -69 -74 -93 -74
-37 0 -77 23 -115 66 -29 34 -32 42 -27 87 6 70 40 102 107 101 55 -1 77 -15
115 -74 l22 -35 145 4 146 3 133 -90 c133 -88 208 -132 229 -132 42 0 -32 103
-145 200 -157 134 -365 365 -365 405 0 24 17 45 37 45 33 0 401 -369 536 -537
l51 -63 75 0 c87 0 121 7 121 24 0 7 -41 57 -90 112 -50 54 -103 117 -118 138
l-27 39 0 236 c0 130 4 244 8 254 5 14 16 17 44 15 l38 -3 3 -230z m1076 95
c20 -7 26 -17 26 -39 0 -40 -40 -71 -91 -71 -33 0 -40 4 -45 24 -10 40 -1 60
36 78 41 21 41 21 74 8z m-2153 -840 c48 -13 118 -75 140 -124 21 -46 25 -131
8 -189 -20 -72 -110 -146 -179 -147 -78 0 -175 66 -211 145 -38 83 -20 193 43
261 55 59 118 76 199 54z m3584 -9 c71 -32 118 -105 131 -200 5 -40 2 -57 -21
-102 -66 -133 -151 -169 -262 -114 -85 43 -133 126 -133 232 0 69 19 114 64
148 72 55 151 68 221 36z m-400 -135 c1 0 -1 -26 -3 -57 l-4 -56 -441 -6
c-277 -3 -456 -10 -479 -17 -49 -14 -152 -89 -209 -152 -60 -65 -79 -61 -79
16 0 48 4 60 38 103 56 69 136 141 181 161 35 16 80 17 517 14 264 -2 479 -5
479 -6z m-1805 -28 c60 -30 148 -108 180 -160 27 -45 26 -118 -2 -118 -6 0
-47 36 -92 79 -44 44 -94 84 -109 90 -19 7 -203 11 -546 11 l-518 0 -7 31 c-3
17 -6 44 -6 60 l0 28 108 4 c59 2 294 3 522 3 l415 -1 55 -27z m-3160 -139 c0
-5 -7 -9 -15 -9 -15 0 -20 12 -9 23 8 8 24 -1 24 -14z m-260 2 c0 -14 -18 -23
-30 -16 -6 4 -8 11 -5 16 8 12 35 12 35 0z m3283 -101 c129 -49 215 -157 237
-300 9 -53 14 -439 17 -1336 l5 -1261 -33 -13 c-18 -8 -52 -29 -76 -47 l-43
-33 0 1363 0 1363 -28 45 c-33 51 -83 96 -129 116 -35 14 -320 19 -421 6 -53
-6 -54 -7 -139 -107 -133 -157 -121 -150 -225 -141 l-88 7 0 -60 c0 -161 -156
-205 -268 -77 -27 30 -32 44 -32 86 0 135 104 202 228 149 45 -19 63 -22 119
-16 83 9 98 17 162 91 74 84 177 174 209 181 15 3 32 8 37 10 6 2 100 2 210 0
177 -3 207 -6 258 -26z m1604 -120 l138 -139 81 9 c45 4 111 17 147 29 82 25
125 16 179 -39 36 -36 38 -40 38 -105 0 -90 -20 -132 -77 -157 -98 -43 -196
17 -218 134 l-7 36 -109 7 -110 7 -41 56 c-60 81 -105 129 -146 154 -34 21
-51 23 -222 26 -227 5 -253 -1 -325 -71 -43 -42 -55 -62 -66 -107 -11 -45 -14
-289 -14 -1325 -1 -1288 -2 -1325 -36 -1325 -6 0 -23 6 -37 14 -15 8 -35 17
-44 20 -17 5 -18 69 -18 1164 0 637 3 1255 7 1372 6 207 7 213 31 242 55 65
169 116 282 128 41 4 155 8 252 9 l177 1 138 -140z m-1804 -162 c16 -12 16
-24 7 -140 -6 -70 -14 -232 -18 -360 l-7 -233 -42 -3 -43 -3 -2 302 -3 303
-51 -70 c-71 -96 -224 -265 -290 -319 -38 -30 -65 -45 -85 -45 -64 0 -34 46
187 290 134 147 248 261 279 278 27 15 48 15 68 0z m1419 -7 c30 -12 133 -104
370 -332 l193 -187 65 14 c153 32 246 -35 244 -176 -1 -99 -39 -162 -117 -195
-43 -18 -68 -19 -120 -4 -85 23 -127 92 -127 210 l0 52 -200 203 c-110 112
-203 205 -207 207 -4 1 -15 -26 -25 -61 -18 -68 -32 -92 -54 -92 -32 0 -43 87
-23 181 11 49 10 54 -10 71 -13 9 -39 20 -59 23 -96 16 -96 17 -30 66 43 31
62 35 100 20z m-2049 -534 c81 -48 117 -103 117 -178 0 -88 -76 -161 -183
-175 -88 -12 -203 66 -227 155 -8 30 -8 52 0 82 13 46 71 116 115 136 43 19
127 10 178 -20z m2130 -261 c61 -25 127 -126 127 -196 0 -44 -29 -108 -64
-139 -48 -45 -180 -42 -236 6 -40 33 -80 113 -80 158 0 67 60 155 120 178 28
10 101 7 133 -7z m-1475 -32 c36 -24 62 -89 62 -162 0 -74 -17 -120 -56 -151
-26 -20 -38 -22 -116 -19 -76 3 -90 6 -114 28 -78 73 -87 219 -16 283 52 47
183 59 240 21z m3917 -514 c43 -63 150 -211 239 -329 209 -277 256 -342 256
-357 0 -15 -11 -12 -233 51 -191 55 -237 80 -299 161 -22 30 -46 54 -53 54
-15 0 -79 -46 -170 -122 -38 -32 -92 -70 -120 -83 -63 -31 -275 -77 -275 -60
0 24 566 813 575 803 2 -2 38 -55 80 -118z m-1521 69 c14 -17 26 -35 26 -40 0
-17 -72 -89 -90 -89 -32 0 -71 40 -68 68 3 24 75 92 98 92 4 0 20 -14 34 -31z
m-159 -151 c16 -30 17 -40 8 -61 -24 -53 -257 -205 -477 -313 -132 -65 -142
-67 -122 -20 12 30 12 35 0 40 -8 3 -14 10 -14 15 0 6 66 50 148 97 172 102
263 162 351 233 35 28 69 50 75 48 6 -2 20 -19 31 -39z m-2989 -39 c88 -62
307 -199 410 -257 109 -62 118 -71 109 -113 -7 -29 -9 -31 -43 -24 -62 11
-213 73 -297 122 -95 54 -268 179 -309 222 l-30 31 29 30 c16 17 38 30 50 30
12 0 48 -19 81 -41z m4640 -679 c54 -26 130 -107 156 -166 35 -80 8 -165 -72
-223 -56 -40 -128 -57 -187 -42 -64 17 -157 66 -181 96 -23 29 -38 141 -27
204 8 46 64 117 109 137 48 21 152 18 202 -6z m-7777 -344 c6 -44 16 -85 22
-93 7 -8 32 -13 64 -13 66 0 94 -21 119 -89 10 -28 26 -56 36 -61 11 -6 54
-15 97 -20 165 -22 170 -29 23 -40 -55 -3 -103 -9 -107 -13 -3 -4 -1 -19 6
-34 10 -21 13 -95 12 -274 l-1 -245 57 7 c32 4 135 8 229 8 l171 1 5 236 c3
129 8 237 10 240 3 2 71 7 152 11 l146 6 0 -656 0 -657 -156 0 -156 0 3 263 3
262 -224 -3 c-124 -2 -228 -6 -232 -9 -5 -2 -8 -116 -8 -254 l0 -249 -156 0
-157 0 7 388 c6 360 -3 714 -19 755 -4 9 -13 17 -20 17 -21 0 -156 60 -198 88
-21 15 -61 41 -88 59 -28 17 -51 35 -52 40 -1 4 18 11 43 14 l45 5 -37 17
c-46 21 -47 25 -9 19 16 -2 45 1 65 8 28 9 38 20 52 55 9 25 31 67 48 94 17
27 36 57 42 68 10 17 14 15 59 -20 27 -20 52 -37 56 -37 12 0 17 24 25 109 3
45 8 80 9 79 2 -2 8 -39 14 -82z m4761 -370 c41 -8 101 -24 132 -36 64 -24
203 -118 203 -138 0 -7 -20 -25 -43 -41 l-44 -29 -92 49 c-107 56 -191 79
-298 79 -138 0 -246 -47 -341 -150 -179 -193 -213 -404 -102 -638 129 -271
467 -359 769 -199 l59 31 -7 66 c-3 36 -6 112 -6 169 l0 103 -186 -7 c-205 -8
-204 -8 -204 52 0 22 6 36 20 43 11 6 93 13 182 15 90 3 193 7 231 10 l67 4 0
-273 0 -272 -117 -57 c-176 -84 -201 -91 -328 -91 -128 -1 -193 17 -340 93
-155 80 -264 217 -311 391 -37 137 -18 358 41 487 26 57 171 215 242 265 109
75 302 105 473 74z m-3210 -651 l0 -655 -143 0 -144 0 -6 203 c-4 111 -7 401
-7 644 l0 443 23 5 c12 3 60 6 107 8 47 2 104 4 128 5 l42 2 0 -655z m880 635
c142 -30 272 -124 326 -237 26 -53 28 -67 28 -173 0 -110 -2 -118 -34 -183
-33 -67 -128 -177 -153 -177 -7 0 -23 -7 -35 -16 -20 -14 -21 -17 -8 -47 7
-18 68 -121 134 -229 67 -107 124 -202 127 -210 5 -13 -17 -17 -152 -23 -128
-6 -159 -5 -165 6 -5 8 -51 86 -104 174 -53 88 -106 181 -117 208 l-20 47 -91
0 -92 0 4 -215 4 -215 -156 0 -156 0 0 657 0 656 303 -6 c166 -3 327 -11 357
-17z m3800 -27 c0 -82 27 -77 -399 -81 l-381 -4 0 -234 0 -234 361 0 362 0 -5
-50 c-3 -28 -7 -53 -10 -56 -3 -2 -163 -8 -357 -11 l-351 -6 0 -234 0 -233
390 0 390 0 0 -53 0 -54 -187 -6 c-104 -4 -306 -7 -450 -7 l-263 0 0 650 0
650 413 3 c226 1 429 3 450 5 l37 2 0 -47z m307 30 c11 -10 63 -74 115 -143
53 -69 193 -249 312 -400 119 -151 260 -337 313 -412 53 -76 97 -138 97 -138
1 0 0 242 -2 538 -3 437 -1 540 10 555 11 14 22 16 61 11 l47 -7 0 -648 0
-649 -53 0 -54 0 -110 143 c-61 78 -210 268 -332 422 -122 154 -256 329 -299
389 l-77 108 -6 -38 c-4 -22 -10 -257 -14 -524 -4 -267 -8 -486 -8 -486 -1 -1
-28 -5 -59 -8 l-58 -7 0 604 c0 332 3 625 6 650 4 30 12 48 23 50 36 10 70 6
88 -10z m1343 -390 c0 -225 -3 -519 -7 -655 l-6 -246 -54 -4 -53 -3 0 658 0
657 60 0 60 0 0 -407z m525 146 c105 -143 195 -265 202 -270 12 -11 59 51 270
356 l118 170 49 3 c60 4 96 -4 96 -21 0 -13 -126 -189 -271 -377 -125 -163
-159 -214 -159 -238 0 -11 37 -71 82 -134 180 -250 358 -507 358 -516 0 -6
-26 -14 -57 -17 -32 -4 -63 -7 -69 -8 -6 -1 -58 68 -115 153 -131 193 -276
397 -288 404 -10 6 -204 -250 -335 -441 l-77 -113 -85 0 c-80 0 -84 1 -72 18
7 10 79 106 159 213 156 207 266 364 293 416 l16 31 -63 85 c-34 47 -138 185
-230 307 -92 121 -165 225 -162 230 4 6 39 10 78 10 l72 -1 190 -260z m-4535
116 l0 -135 -300 0 -300 0 0 -121 0 -121 264 8 c152 4 265 3 268 -2 2 -5 2
-71 0 -146 l-4 -138 -264 0 -264 0 0 -121 c0 -100 2 -120 14 -116 8 3 145 9
305 13 l291 7 0 -151 0 -152 -455 0 -455 0 0 648 c0 357 3 652 7 655 3 4 206
7 450 7 l443 0 0 -135z m-844 -1510 c87 -51 138 -164 115 -253 -25 -92 -113
-152 -222 -152 -117 1 -197 60 -219 164 -14 68 -6 114 29 166 69 103 195 135
297 75z m3372 -20 c17 -28 54 -102 81 -166 83 -196 88 -229 32 -229 -26 0 -31
5 -47 50 l-18 50 -97 0 -98 0 -8 -42 c-8 -41 -11 -43 -46 -46 -47 -4 -47 2 -1
126 61 163 135 313 153 310 9 -2 31 -26 49 -53z m-3894 8 c11 -71 7 -262 -7
-296 -8 -18 -33 -49 -56 -69 -51 -47 -98 -51 -154 -13 -38 27 -46 50 -27 86
14 26 32 24 58 -6 24 -28 49 -32 77 -11 22 16 34 99 34 249 l1 97 34 0 c31 0
34 -3 40 -37z m1062 21 c34 -5 77 -45 93 -85 8 -22 5 -33 -16 -62 l-25 -35 36
-48 c20 -26 36 -56 36 -67 0 -11 -21 -41 -47 -67 l-48 -48 -100 -6 c-55 -4
-115 -9 -132 -12 l-33 -5 0 224 0 224 103 -4 c56 -2 116 -6 133 -9z m737 6
c55 0 60 -2 107 -46 63 -59 72 -95 39 -161 -32 -62 -77 -86 -164 -84 l-65 1 0
-60 c0 -56 -2 -61 -27 -71 -52 -20 -53 -17 -53 217 l0 217 53 -7 c28 -3 78 -6
110 -6z m616 -10 c113 -57 156 -217 86 -322 -37 -55 -108 -98 -163 -98 -47 0
-129 35 -171 73 -58 53 -77 157 -42 232 20 44 78 100 125 121 46 20 121 17
165 -6z m447 10 l94 0 45 -41 c44 -41 45 -43 45 -103 0 -54 -4 -66 -30 -96
-16 -19 -29 -41 -30 -49 0 -7 16 -35 35 -61 19 -26 35 -53 35 -59 0 -6 -17
-11 -39 -11 -37 0 -41 3 -71 55 -36 63 -53 75 -109 75 l-40 0 -3 -67 c-3 -63
-5 -68 -27 -71 -13 -2 -28 2 -32 10 -10 15 -12 388 -3 413 4 9 13 14 21 11 8
-3 57 -6 109 -6z m684 -38 l0 -49 -54 5 c-45 4 -56 1 -64 -14 -5 -11 -13 -88
-17 -172 l-8 -153 -30 3 c-41 4 -45 20 -46 196 l-1 142 -59 0 c-62 0 -86 14
-76 44 3 9 7 23 10 31 4 13 32 15 175 15 l170 0 0 -48z m752 -124 l3 -173 101
1 102 1 6 -39 c4 -22 4 -43 1 -49 -9 -14 -272 -12 -281 3 -9 14 -19 391 -11
412 4 10 19 16 41 16 l36 0 2 -172z m-4989 -51 c17 -53 3 -74 -58 -87 -40 -8
-59 -8 -75 0 -25 13 -397 29 -692 30 -180 0 -236 7 -191 24 10 4 200 13 423
21 296 10 417 18 450 29 25 8 65 14 89 13 39 -2 46 -5 54 -30z m5652 8 c43
-10 126 -14 300 -15 231 0 528 -13 609 -26 93 -15 -13 -22 -423 -29 -347 -5
-446 -9 -483 -21 -28 -9 -60 -13 -78 -9 -28 6 -30 10 -30 49 0 41 13 66 35 66
5 0 37 -7 70 -15z m-3975 -510 c17 -16 30 -33 30 -38 0 -10 -72 -4 -117 9 -32
9 -93 -53 -93 -94 0 -45 48 -82 106 -82 49 0 57 15 24 45 -41 37 -14 79 36 56
32 -14 48 -51 40 -94 -18 -96 -167 -92 -240 6 -46 63 -43 106 15 172 42 47 62
56 122 51 36 -2 55 -10 77 -31z m912 8 c23 -40 90 -252 83 -264 -11 -17 -53
-10 -60 11 -3 11 -13 27 -21 35 -19 18 -89 20 -103 3 -6 -7 -21 -26 -34 -42
-25 -31 -47 -29 -47 4 0 10 18 61 40 112 71 163 107 199 142 141z m-1819 -13
c-1 -14 -7 -54 -13 -90 -13 -79 -6 -120 20 -120 13 0 22 11 29 38 15 50 14
159 0 164 -18 6 20 40 40 36 14 -3 16 -19 15 -116 -2 -140 -11 -156 -84 -166
-29 -4 -53 -6 -55 -4 -1 2 -5 67 -8 146 l-5 143 31 -3 c27 -3 32 -7 30 -28z
m497 -1 c0 -30 -1 -31 -36 -25 -47 9 -100 -9 -108 -37 -3 -12 -6 -51 -6 -86
l0 -63 48 7 c26 3 58 14 71 22 24 15 24 16 5 30 -10 8 -31 17 -46 20 -34 7
-35 17 -6 37 31 22 75 21 82 -1 9 -30 24 -148 19 -155 -2 -5 -53 -8 -114 -8
l-109 0 0 129 c0 162 -1 161 116 161 l84 0 0 -31z m1045 1 c0 -23 -4 -25 -49
-28 l-49 -3 6 -107 c8 -122 2 -142 -37 -124 -26 11 -26 13 -26 122 l0 110 -40
0 c-42 0 -58 15 -46 45 5 13 25 15 123 13 l118 -3 0 -25z m575 -85 l0 -104 68
-3 67 -3 3 -39 3 -38 -85 3 c-52 3 -90 9 -98 17 -9 9 -13 47 -13 127 0 97 3
116 19 134 10 11 23 18 27 15 5 -3 9 -52 9 -109z m620 55 c5 -53 6 -55 36 -58
16 -2 43 2 58 8 27 10 28 12 21 60 -7 48 -6 50 18 50 13 0 29 -6 35 -13 6 -7
14 -67 18 -133 5 -99 3 -122 -9 -139 -26 -33 -51 -9 -55 54 l-3 51 -60 0 -59
0 0 -48 c0 -51 -12 -72 -42 -72 -17 0 -18 12 -18 151 l0 150 28 -3 c25 -3 27
-7 32 -58z m550 51 c0 -16 -25 -29 -75 -42 -68 -16 -85 -26 -85 -49 0 -18 7
-20 59 -20 34 0 63 -5 67 -12 10 -16 -25 -38 -61 -38 -42 0 -68 -20 -63 -51 2
-13 8 -23 13 -23 6 1 36 4 68 8 l57 6 0 -35 0 -35 -89 0 -88 0 -7 38 c-3 20
-6 85 -6 144 l0 107 43 4 c86 7 167 7 167 -2z m359 -26 c43 -49 45 -84 5 -126
-29 -30 -30 -56 -4 -89 11 -14 20 -31 20 -39 0 -20 -51 -5 -70 20 -50 69 -69
84 -87 73 -10 -6 -19 -22 -21 -35 -6 -51 -13 -69 -27 -69 -30 0 -37 38 -30
171 l8 129 87 0 88 0 31 -35z m-2504 -109 c0 -108 -3 -130 -16 -139 -9 -6 -23
-8 -30 -5 -12 5 -12 27 -3 139 6 74 12 135 13 137 0 2 9 2 19 0 15 -3 17 -17
17 -132z m2875 124 c26 -16 -4 -32 -74 -37 -65 -6 -66 -6 -66 -34 0 -28 2 -29
49 -29 62 0 81 -7 81 -31 0 -15 -9 -18 -57 -21 -54 -3 -58 -5 -61 -29 -3 -28
15 -39 70 -39 39 0 58 -10 58 -30 0 -25 -19 -30 -111 -30 l-79 0 0 145 0 145
88 0 c48 0 94 -5 102 -10z"/>
<path d="M8089 6143 c-13 -16 -12 -17 4 -4 9 7 17 15 17 17 0 8 -8 3 -21 -13z"/>
<path d="M7963 7139 c-25 -58 -9 -63 22 -6 14 25 17 39 9 47 -7 7 -17 -6 -31
-41z"/>
<path d="M3940 4548 l0 -164 73 3 c118 5 256 22 276 34 38 25 66 81 66 135 0
63 -23 100 -81 129 -33 17 -63 21 -186 23 l-148 4 0 -164z"/>
<path d="M4746 3280 c-120 -36 -127 -209 -10 -265 47 -22 94 -13 139 26 85 75
62 188 -47 234 -42 17 -41 17 -82 5z"/>
<path d="M8192 3172 c-12 -32 -22 -61 -22 -65 0 -4 20 -7 45 -7 32 0 47 5 51
15 7 17 -27 107 -42 112 -5 2 -19 -23 -32 -55z"/>
<path d="M5303 3284 c-8 -3 -13 -24 -13 -51 l0 -45 65 4 c68 4 100 22 90 50
-11 27 -109 56 -142 42z"/>
<path d="M5290 3055 l0 -55 64 0 c109 0 142 28 100 88 -13 19 -24 22 -90 22
l-74 0 0 -55z"/>
<path d="M6094 3266 c-3 -7 -4 -38 -2 -67 l3 -54 40 -3 c63 -5 105 6 117 33
17 38 2 74 -37 91 -44 18 -114 19 -121 0z"/>
<path d="M6605 3244 c-29 -32 -49 -96 -39 -127 17 -56 87 -117 134 -117 33 0
88 37 105 70 18 34 20 102 4 133 -29 55 -49 67 -116 67 -56 0 -67 -3 -88 -26z"/>
<path d="M7174 3254 c3 -9 6 -38 6 -66 l0 -50 58 6 c98 12 140 63 86 105 -21
16 -41 21 -91 21 -55 0 -64 -2 -59 -16z"/>
<path d="M6210 2540 c-15 -35 -14 -36 23 -45 23 -6 27 -4 27 15 0 25 -17 60
-29 60 -5 0 -14 -14 -21 -30z"/>
<path d="M7952 2588 c-32 -32 -3 -69 53 -71 51 -1 72 35 39 67 -18 19 -75 21
-92 4z"/>
</g>
</svg>
